<svg xmlns="http://www.w3.org/2000/svg" version="1.1" xmlns:xlink="http://www.w3.org/1999/xlink" xmlns:svgjs="http://svgjs.dev/svgjs" width="2000" height="2250" viewBox="0 0 2000 2250"><g transform="matrix(1,0,0,1,0,0)"><svg viewBox="0 0 320 360" data-background-color="#a437db" preserveAspectRatio="xMidYMid meet" height="2250" width="2000" xmlns="http://www.w3.org/2000/svg" xmlns:xlink="http://www.w3.org/1999/xlink"><g id="tight-bounds" transform="matrix(1,0,0,1,0,0)"><svg viewBox="0 0 320 360" height="360" width="320"><g><svg></svg></g><g><svg viewBox="0 0 320 360" height="360" width="320"><g><path transform="translate(-25.80645,-5.80645) scale(10.32258,10.32258)" d="M18 33.5c8.55 0 15.5-6.95 15.5-15.5 0-8.55-6.95-15.5-15.5-15.5-8.55 0-15.5 6.95-15.5 15.5 0 8.55 6.95 15.5 15.5 15.5zM18.5 32.47v-1c7.04-0.26 12.71-5.93 12.97-12.97h1c-0.26 7.6-6.37 13.71-13.97 13.97zM18.5 3.53c7.6 0.26 13.71 6.37 13.97 13.97h-1c-0.26-7.04-5.93-12.71-12.97-12.97zM30.5 18c0 6.89-5.61 12.5-12.5 12.5-6.89 0-12.5-5.61-12.5-12.5 0-6.89 5.61-12.5 12.5-12.5 6.89 0 12.5 5.61 12.5 12.5zM17.5 3.53v1c-7.04 0.26-12.71 5.93-12.97 12.97h-1c0.26-7.6 6.37-13.71 13.97-13.97zM4.53 18.5c0.26 7.04 5.93 12.71 12.97 12.97v1c-7.6-0.26-13.71-6.37-13.97-13.97z" fill="#000000" fill-rule="nonzero" stroke="none" stroke-width="1" stroke-linecap="butt" stroke-linejoin="miter" stroke-miterlimit="10" stroke-dasharray="" stroke-dashoffset="0" font-family="none" font-weight="none" font-size="none" text-anchor="none" style="mix-blend-mode: normal" data-fill-palette-color="tertiary"></path></g><g transform="matrix(1,0,0,1,64,118.60536671531887)"><svg viewBox="0 0 192 122.78926656936227" height="122.78926656936227" width="192"><g><svg viewBox="0 0 192 122.78926656936227" height="122.78926656936227" width="192"><g transform="matrix(1,0,0,1,0,89.46669517210198)"><svg viewBox="0 0 192 33.32257139726028" height="33.32257139726028" width="192"><g id="textblocktransform"><svg viewBox="0 0 192 33.32257139726028" height="33.32257139726028" width="192" id="textblock"><g><svg viewBox="0 0 192 17.97260273972603" height="17.97260273972603" width="192"><g transform="matrix(1,0,0,1,0,0)"><svg width="192" viewBox="0.75 -45.15 547.44 51.25" height="17.97260273972603" data-palette-color="#ffffff"><path d="M9.1 0L0.75 0 4.9-42.95 19.45-42.95 23.55 0 15.4 0 14.8-6.95 9.6-6.95 9.1 0ZM11.85-35.65L10.25-13.8 14.15-13.8 12.25-35.65 11.85-35.65ZM26 0L26-36.6 34.55-36.6 34.55-32.35Q35.15-34.7 36.6-35.85 38.05-37 40.7-37L40.7-37Q42.85-37 44.42-36.02 46-35.05 46.65-33.35L46.65-33.35Q47.75-35.25 49.1-36.13 50.45-37 52.85-37L52.85-37Q57.15-37 58.82-34.38 60.5-31.75 60.5-26.75L60.5-26.75 60.4 0 51.6 0 51.6-26.9Q51.6-30.45 49.8-30.45L49.8-30.45Q48.55-30.45 48-29.23 47.45-28 47.45-26.3L47.45-26.3 47.45 0 38.7 0 38.7-26.9Q38.7-28.45 38.37-29.4 38.05-30.35 37-30.35L37-30.35Q35.65-30.35 35.1-29.03 34.55-27.7 34.55-25.85L34.55-25.85 34.55 0 26 0ZM74.14 0.4Q68.49 0.4 66.05-2.7 63.59-5.8 63.59-11.95L63.59-11.95 63.59-26.65Q63.59-31.7 66.49-34.35 69.39-37 74.59-37L74.59-37Q85.14-37 85.14-26.65L85.14-26.65 85.14-24Q85.14-20 85.05-17.5L85.05-17.5 72.34-17.5 72.34-10.4Q72.34-8.5 72.75-7.43 73.14-6.35 74.44-6.35L74.44-6.35Q75.44-6.35 75.87-6.95 76.3-7.55 76.37-8.33 76.44-9.1 76.44-10.6L76.44-10.6 76.44-14.15 85.14-14.15 85.14-12.05Q85.14-5.65 82.67-2.63 80.19 0.4 74.14 0.4L74.14 0.4ZM72.3-21.85L76.44-21.85 76.44-26.55Q76.44-30.5 74.5-30.5L74.5-30.5Q72.3-30.5 72.3-26.55L72.3-26.55 72.3-21.85ZM88.29 0L88.29-36.6 97.04-36.6 97.04-32.55Q97.69-34.7 99.32-35.88 100.94-37.05 103.34-37.05L103.34-37.05 103.34-29.75Q101.49-29.75 99.27-29.23 97.04-28.7 97.04-28L97.04-28 97.04 0 88.29 0ZM114.19-39.05L105.44-39.05 105.44-45.15 114.19-45.15 114.19-39.05ZM114.19 0L105.44 0 105.44-36.6 114.19-36.6 114.19 0ZM128.64 0.4Q122.64 0.4 119.99-2.65 117.34-5.7 117.34-12L117.34-12 117.34-23.3Q117.34-28.05 118.36-31.03 119.39-34 121.81-35.5 124.24-37 128.54-37L128.54-37Q133.24-37 136.19-34.55 139.14-32.1 139.14-27.7L139.14-27.7 139.14-22.1 130.24-22.1 130.24-27.25Q130.24-28.7 129.84-29.48 129.44-30.25 128.29-30.25L128.29-30.25Q126.14-30.25 126.14-27.2L126.14-27.2 126.14-9.45Q126.14-8.2 126.66-7.33 127.19-6.45 128.24-6.45L128.24-6.45Q129.29-6.45 129.81-7.3 130.34-8.15 130.29-9.5L130.29-9.5 130.24-15.65 139.14-15.65 139.14-9.25Q139.14-4.75 136.21-2.18 133.29 0.4 128.64 0.4L128.64 0.4ZM148.84 0.4Q144.59 0.4 143.01-2.43 141.44-5.25 141.44-10.5L141.44-10.5Q141.44-14.8 142.56-17.1 143.69-19.4 145.69-20.48 147.69-21.55 151.79-22.85L151.79-22.85 154.19-23.65 154.19-23.75 154.19-27.4Q154.19-28.85 153.61-29.63 153.04-30.4 152.24-30.4L152.24-30.4Q151.54-30.4 151.01-29.75 150.49-29.1 150.49-28L150.49-28 150.49-25.8 141.99-25.8 141.99-27Q141.99-32.4 144.51-34.7 147.04-37 152.74-37L152.74-37Q157.29-37 160.14-34.63 162.99-32.25 162.99-27.9L162.99-27.9 162.99 0 154.29 0 154.29-4.35Q153.64-2.1 152.21-0.85 150.79 0.4 148.84 0.4L148.84 0.4ZM152.29-6.4Q153.29-6.4 153.71-7.23 154.14-8.05 154.14-9.25L154.14-9.25 154.14-19.45Q152.19-18.7 151.26-17.55 150.34-16.4 150.34-14.35L150.34-14.35 150.34-9.65Q150.34-6.4 152.29-6.4L152.29-6.4ZM166.33 0L166.33-36.6 175.08-36.6 175.08-31.95Q175.63-34.2 176.98-35.6 178.33-37 180.58-37L180.58-37Q184.28-37 186.06-34.73 187.83-32.45 187.83-28.25L187.83-28.25 187.83 0 179.23 0 179.23-27.35Q179.23-28.55 178.76-29.4 178.28-30.25 177.28-30.25L177.28-30.25Q175.93-30.25 175.51-29.03 175.08-27.8 175.08-25.75L175.08-25.75 175.08 0 166.33 0ZM220.88 0L203.13 0 203.13-42.95 220.33-42.95 220.33-34.65 211.88-34.65 211.88-26.3 219.98-26.3 219.98-18.2 211.88-18.2 211.88-8.35 220.88-8.35 220.88 0ZM223.58 0L223.58-36.6 232.33-36.6 232.33-31.95Q232.88-34.2 234.23-35.6 235.58-37 237.83-37L237.83-37Q241.53-37 243.3-34.73 245.08-32.45 245.08-28.25L245.08-28.25 245.08 0 236.48 0 236.48-27.35Q236.48-28.55 236-29.4 235.53-30.25 234.53-30.25L234.53-30.25Q233.18-30.25 232.75-29.03 232.33-27.8 232.33-25.75L232.33-25.75 232.33 0 223.58 0ZM258.37 5.35Q254.47 5.35 252.25 4.73 250.02 4.1 247.87 2.35L247.87 2.35 250.87-2.7Q254.07-0.8 257.22-0.8L257.22-0.8Q259.27-0.8 260.32-2.1 261.37-3.4 261.37-5.65L261.37-5.65 261.37-7.65Q260.32-3.9 255.82-3.9L255.82-3.9Q252.07-3.9 250.3-6.45 248.52-9 248.52-13.25L248.52-13.25 248.52-27Q248.52-31.85 250.15-34.43 251.77-37 255.82-37L255.82-37Q258.17-37 259.55-35.83 260.92-34.65 261.37-32.5L261.37-32.5 261.37-36.6 270.32-36.6 270.32-6.2Q270.32-0.05 267.47 2.65 264.62 5.35 258.37 5.35L258.37 5.35ZM259.32-10.5Q261.37-10.5 261.37-14.2L261.37-14.2 261.37-27.25Q261.37-28.35 260.77-29.35 260.17-30.35 259.27-30.35L259.27-30.35Q258.12-30.35 257.72-29.53 257.32-28.7 257.32-27.25L257.32-27.25 257.32-14.2Q257.32-12.55 257.72-11.53 258.12-10.5 259.32-10.5L259.32-10.5ZM282.62 0L273.72 0 273.72-43.2 282.62-43.2 282.62 0ZM294.82-39.05L286.07-39.05 286.07-45.15 294.82-45.15 294.82-39.05ZM294.82 0L286.07 0 286.07-36.6 294.82-36.6 294.82 0ZM308.31 0.4Q297.46 0.4 297.46-10.6L297.46-10.6 297.51-13.5 306.26-13.5 306.31-9.2Q306.31-7.9 306.81-7.23 307.31-6.55 308.46-6.55L308.46-6.55Q310.21-6.55 310.21-9.4L310.21-9.4Q310.21-11.5 309.39-12.7 308.56-13.9 306.76-15.25L306.76-15.25 302.12-18.85Q299.71-20.7 298.66-22.68 297.62-24.65 297.62-28.25L297.62-28.25Q297.62-31.05 299.09-33.02 300.56-35 303.01-36 305.46-37 308.46-37L308.46-37Q319.12-37 319.12-26.4L319.12-26.4 319.12-25.7 310.06-25.7 310.06-27.1Q310.06-28.4 309.64-29.33 309.21-30.25 308.21-30.25L308.21-30.25Q307.31-30.25 306.84-29.73 306.37-29.2 306.37-28.3L306.37-28.3Q306.37-26.3 307.91-25.2L307.91-25.2 313.31-21.25Q316.21-19.1 317.76-16.57 319.31-14.05 319.31-10.2L319.31-10.2Q319.31-5.1 316.41-2.35 313.51 0.4 308.31 0.4L308.31 0.4ZM322.01 0L322.01-43.2 331.01-43.2 331.01-33Q332.41-37 336.36-37L336.36-37Q340.06-37 341.96-34.65 343.86-32.3 343.86-28.2L343.86-28.2 343.86 0 335.11 0 335.11-27.65Q335.11-28.85 334.56-29.6 334.01-30.35 332.96-30.35L332.96-30.35Q332.06-30.35 331.54-29.58 331.01-28.8 331.01-27.7L331.01-27.7 331.01 0 322.01 0ZM372.51 0L362.81 0 358.36-36.6 365.86-36.6 368.31-16.95 370.41-36.6 378.06-36.6 380.56-16.95 382.61-36.6 390.86-36.6 386.16 0 377.41 0 374.81-20.8 372.51 0ZM402.45-39.05L393.7-39.05 393.7-45.15 402.45-45.15 402.45-39.05ZM402.45 0L393.7 0 393.7-36.6 402.45-36.6 402.45 0ZM413.45 0.4Q410 0.4 408.7-1.05 407.4-2.5 407.4-5.7L407.4-5.7 407.4-28.55 404.95-28.55 404.95-35.2 407.4-35.2 407.4-42.95 415.9-42.95 415.9-35.2 418.4-35.2 418.4-28.55 415.9-28.55 415.9-8Q415.9-7.05 416.05-6.6 416.2-6.15 416.85-6.15L416.85-6.15Q417.35-6.15 417.8-6.2 418.25-6.25 418.4-6.25L418.4-6.25 418.4-0.25Q417.65-0.05 416.23 0.18 414.8 0.4 413.45 0.4L413.45 0.4ZM421.15 0L421.15-43.2 430.15-43.2 430.15-33Q431.55-37 435.5-37L435.5-37Q439.2-37 441.1-34.65 443-32.3 443-28.2L443-28.2 443 0 434.25 0 434.25-27.65Q434.25-28.85 433.7-29.6 433.15-30.35 432.1-30.35L432.1-30.35Q431.2-30.35 430.67-29.58 430.15-28.8 430.15-27.7L430.15-27.7 430.15 0 421.15 0ZM475.69 0L458.24 0 458.24-42.95 466.84-42.95 466.84-7.3 475.69-7.3 475.69 0ZM484.99 0.4Q480.89 0.4 479.37-2.05 477.84-4.5 477.84-9.35L477.84-9.35 477.84-36.6 486.64-36.6 486.64-11.1Q486.64-10.75 486.64-9.22 486.64-7.7 487.12-7.08 487.59-6.45 488.59-6.45L488.59-6.45Q489.94-6.45 490.29-7.58 490.64-8.7 490.64-10.8L490.64-10.8 490.64-11.1 490.69-36.6 499.39-36.6 499.39 0 490.64 0 490.64-3.9Q489.74-1.6 488.54-0.6 487.34 0.4 484.99 0.4L484.99 0.4ZM513.89 0.4Q507.89 0.4 505.24-2.65 502.59-5.7 502.59-12L502.59-12 502.59-23.3Q502.59-28.05 503.62-31.03 504.64-34 507.06-35.5 509.49-37 513.79-37L513.79-37Q518.49-37 521.44-34.55 524.39-32.1 524.39-27.7L524.39-27.7 524.39-22.1 515.49-22.1 515.49-27.25Q515.49-28.7 515.09-29.48 514.69-30.25 513.54-30.25L513.54-30.25Q511.39-30.25 511.39-27.2L511.39-27.2 511.39-9.45Q511.39-8.2 511.91-7.33 512.44-6.45 513.49-6.45L513.49-6.45Q514.54-6.45 515.06-7.3 515.59-8.15 515.54-9.5L515.54-9.5 515.49-15.65 524.39-15.65 524.39-9.25Q524.39-4.75 521.47-2.18 518.54 0.4 513.89 0.4L513.89 0.4ZM526.74 6.1L526.74 0.55 530.94 0.55Q531.84 0.55 531.84-0.2L531.84-0.2Q531.84-0.55 531.79-0.75L531.79-0.75 526.09-36.6 534.44-36.6 536.09-18.75 536.89-9.65 537.84-18.75 539.79-36.6 548.19-36.6 541.39 1.9Q541.04 4.05 539.96 5.08 538.89 6.1 536.59 6.1L536.59 6.1 526.74 6.1Z" opacity="1" transform="matrix(1,0,0,1,0,0)" fill="#000000" class="wordmark-text-0" data-fill-palette-color="primary" id="text-0"></path></svg></g></svg></g><g transform="matrix(1,0,0,1,0,22.215502904109595)"><svg viewBox="0 0 192 11.107068493150688" height="11.107068493150688" width="192"><g transform="matrix(1,0,0,1,0,0)"><svg width="192" viewBox="3.56 -37.5 828.0200000000001 47.9" height="11.107068493150688" data-palette-color="#ffffff"><path d="M9.86-35.55L9.86 0 3.56 0 3.56-35.55 9.86-35.55ZM31.2-35.55L16.85-18.33 8.59-9.59 7.5-15.89 13.31-23.22 23.51-35.55 31.2-35.55ZM24.37 0L12.87-16.72 17.21-21.02 31.86 0 24.37 0ZM60.73-20.78L60.73 0 54.68 0 54.68-26.42 60.37-26.42 60.73-20.78ZM59.66-14.16L57.7-14.14Q57.73-17.97 59.05-20.84 60.37-23.71 62.73-25.31 65.1-26.9 68.25-26.9L68.25-26.9Q70.82-26.9 72.7-25.94 74.58-24.98 75.62-22.81 76.67-20.65 76.67-17.02L76.67-17.02 76.67 0 70.6 0 70.6-17.07Q70.6-18.9 70.07-19.97 69.55-21.04 68.51-21.5 67.47-21.95 65.98-21.95L65.98-21.95Q64.47-21.95 63.31-21.35 62.15-20.75 61.33-19.68 60.51-18.6 60.09-17.19 59.66-15.77 59.66-14.16L59.66-14.16ZM101.96-12.94L101.96-13.45Q101.96-17.31 103.42-20.34 104.89-23.36 107.63-25.13 110.38-26.9 114.24-26.9L114.24-26.9Q118.14-26.9 120.9-25.13 123.66-23.36 125.11-20.34 126.57-17.31 126.57-13.45L126.57-13.45 126.57-12.94Q126.57-9.11 125.11-6.07 123.66-3.03 120.92-1.27 118.17 0.49 114.29 0.49L114.29 0.49Q110.41 0.49 107.65-1.27 104.89-3.03 103.42-6.07 101.96-9.11 101.96-12.94L101.96-12.94ZM108.01-13.45L108.01-12.94Q108.01-10.6 108.67-8.65 109.33-6.71 110.71-5.54 112.09-4.37 114.29-4.37L114.29-4.37Q116.46-4.37 117.84-5.54 119.22-6.71 119.87-8.65 120.51-10.6 120.51-12.94L120.51-12.94 120.51-13.45Q120.51-15.77 119.87-17.72 119.22-19.68 117.83-20.86 116.44-22.05 114.24-22.05L114.24-22.05Q112.07-22.05 110.69-20.86 109.31-19.68 108.66-17.72 108.01-15.77 108.01-13.45L108.01-13.45ZM159.1-6.03L165.18-26.42 169.04-26.42 168.01-19.97 161.88 0 158.47 0 159.1-6.03ZM155.68-26.42L160.42-5.96 160.74 0 156.9 0 149.77-26.42 155.68-26.42ZM174.63-6.2L179.19-26.42 185.08-26.42 177.97 0 174.14 0 174.63-6.2ZM169.7-26.42L175.7-6.25 176.41 0 172.97 0 166.77-20 165.77-26.42 169.7-26.42ZM215.95-37.5L215.95 0 209.9 0 209.9-37.5 215.95-37.5ZM254.49 0.49L254.49 0.49Q250.56 0.49 247.7-1.21 244.85-2.91 243.31-5.8 241.77-8.69 241.77-12.28L241.77-12.28 241.77-13.28Q241.77-17.41 243.33-20.47 244.9-23.54 247.62-25.22 250.34-26.9 253.78-26.9L253.78-26.9Q257.59-26.9 260.11-25.26 262.62-23.61 263.87-20.69 265.11-17.77 265.11-13.94L265.11-13.94 265.11-11.33 244.68-11.33 244.68-15.7 259.13-15.7 259.13-16.16Q259.08-17.7 258.54-19.04 258.01-20.39 256.85-21.22 255.69-22.05 253.76-22.05L253.76-22.05Q251.83-22.05 250.51-20.96 249.19-19.87 248.51-17.91 247.83-15.94 247.83-13.28L247.83-13.28 247.83-12.28Q247.83-10.03 248.66-8.25 249.49-6.47 251.07-5.43 252.66-4.39 254.86-4.39L254.86-4.39Q256.98-4.39 258.63-5.22 260.28-6.05 261.47-7.62L261.47-7.62 264.65-4.44Q263.4-2.56 260.9-1.04 258.4 0.49 254.49 0.49ZM306.14-5.54L306.14-37.5 312.2-37.5 312.2 0 306.7 0 306.14-5.54ZM289-12.92L289-13.43Q289-17.43 290.26-20.47 291.52-23.51 293.84-25.21 296.16-26.9 299.4-26.9L299.4-26.9Q302.6-26.9 304.75-25.24 306.9-23.58 308.13-20.64 309.36-17.7 309.78-13.82L309.78-13.82 309.78-12.4Q309.36-8.64 308.14-5.74 306.92-2.83 304.76-1.17 302.6 0.49 299.35 0.49L299.35 0.49Q296.16 0.49 293.84-1.26 291.52-3 290.26-6.03 289-9.06 289-12.92L289-12.92ZM295.06-13.43L295.06-12.92Q295.06-10.57 295.64-8.65 296.23-6.74 297.51-5.6 298.79-4.47 300.89-4.47L300.89-4.47Q302.87-4.47 304.15-5.33 305.43-6.2 306.15-7.69 306.87-9.18 307.14-11.04L307.14-11.04 307.14-15.16Q306.97-16.63 306.53-17.87 306.09-19.12 305.35-20.02 304.6-20.92 303.51-21.44 302.41-21.95 300.94-21.95L300.94-21.95Q298.84-21.95 297.54-20.81 296.23-19.68 295.64-17.74 295.06-15.8 295.06-13.43L295.06-13.43ZM355.67-26.42L361.19-26.42 361.19-0.76Q361.19 2.81 359.65 5.31 358.11 7.81 355.39 9.11 352.67 10.4 349.08 10.4L349.08 10.4Q347.56 10.4 345.72 9.97 343.88 9.55 342.14 8.59 340.41 7.64 339.24 6.1L339.24 6.1 342.07 2.44Q343.49 4.08 345.18 4.87 346.88 5.66 348.76 5.66L348.76 5.66Q351.71 5.66 353.41 4.03 355.11 2.39 355.11-0.66L355.11-0.66 355.11-20.41 355.67-26.42ZM337.75-12.92L337.75-13.43Q337.75-17.43 339.03-20.47 340.31-23.51 342.69-25.21 345.07-26.9 348.34-26.9L348.34-26.9Q350.93-26.9 352.76-25.96 354.59-25.02 355.8-23.28 357.01-21.53 357.71-19.13 358.4-16.72 358.74-13.82L358.74-13.82 358.74-12.4Q358.3-8.64 357.11-5.74 355.91-2.83 353.75-1.17 351.59 0.49 348.29 0.49L348.29 0.49Q345.07 0.49 342.7-1.26 340.34-3 339.04-6.03 337.75-9.06 337.75-12.92L337.75-12.92ZM343.8-13.43L343.8-12.92Q343.8-10.57 344.44-8.65 345.07-6.74 346.4-5.6 347.73-4.47 349.83-4.47L349.83-4.47Q351.88-4.47 353.18-5.33 354.47-6.2 355.19-7.69 355.91-9.18 356.18-11.04L356.18-11.04 356.18-15.16Q356.03-16.63 355.61-17.87 355.18-19.12 354.41-20.02 353.64-20.92 352.52-21.44 351.4-21.95 349.88-21.95L349.88-21.95Q347.78-21.95 346.44-20.81 345.1-19.68 344.45-17.74 343.8-15.8 343.8-13.43L343.8-13.43ZM399.33 0.49L399.33 0.49Q395.4 0.49 392.55-1.21 389.69-2.91 388.15-5.8 386.62-8.69 386.62-12.28L386.62-12.28 386.62-13.28Q386.62-17.41 388.18-20.47 389.74-23.54 392.46-25.22 395.18-26.9 398.63-26.9L398.63-26.9Q402.44-26.9 404.95-25.26 407.46-23.61 408.71-20.69 409.95-17.77 409.95-13.94L409.95-13.94 409.95-11.33 389.52-11.33 389.52-15.7 403.97-15.7 403.97-16.16Q403.92-17.7 403.39-19.04 402.85-20.39 401.69-21.22 400.53-22.05 398.6-22.05L398.6-22.05Q396.67-22.05 395.36-20.96 394.04-19.87 393.35-17.91 392.67-15.94 392.67-13.28L392.67-13.28 392.67-12.28Q392.67-10.03 393.5-8.25 394.33-6.47 395.92-5.43 397.5-4.39 399.7-4.39L399.7-4.39Q401.83-4.39 403.47-5.22 405.12-6.05 406.32-7.62L406.32-7.62 409.49-4.44Q408.25-2.56 405.74-1.04 403.24 0.49 399.33 0.49ZM474.29-26.42L474.29 0 468.24 0 468.24-26.42 474.29-26.42ZM467.85-33.33L467.85-33.33Q467.85-34.72 468.75-35.63 469.65-36.55 471.26-36.55L471.26-36.55Q472.87-36.55 473.8-35.63 474.73-34.72 474.73-33.33L474.73-33.33Q474.73-31.96 473.8-31.04 472.87-30.13 471.26-30.13L471.26-30.13Q469.65-30.13 468.75-31.04 467.85-31.96 467.85-33.33ZM515.88-7.2L515.88-7.2Q515.88-8.03 515.46-8.72 515.03-9.4 513.81-9.99 512.59-10.57 510.22-11.06L510.22-11.06Q507.41-11.65 505.27-12.62 503.14-13.6 501.95-15.14 500.77-16.67 500.77-18.9L500.77-18.9Q500.77-21.04 502-22.86 503.24-24.68 505.54-25.79 507.85-26.9 511-26.9L511-26.9Q514.32-26.9 516.71-25.79 519.1-24.68 520.39-22.79 521.67-20.9 521.67-18.51L521.67-18.51 515.61-18.51Q515.61-20.07 514.45-21.25 513.29-22.44 510.98-22.44L510.98-22.44Q509.53-22.44 508.57-21.97 507.61-21.51 507.13-20.78 506.65-20.04 506.65-19.17L506.65-19.17Q506.65-18.31 507.13-17.68 507.61-17.04 508.77-16.55 509.93-16.06 512.02-15.63L512.02-15.63Q515.05-14.99 517.25-14.03 519.45-13.06 520.63-11.49 521.81-9.91 521.81-7.5L521.81-7.5Q521.81-5.18 520.48-3.37 519.15-1.56 516.75-0.54 514.34 0.49 511.07 0.49L511.07 0.49Q507.44 0.49 504.94-0.81 502.45-2.1 501.17-4.11 499.89-6.13 499.89-8.3L499.89-8.3 505.73-8.3Q505.82-6.74 506.62-5.79 507.41-4.83 508.62-4.41 509.83-3.98 511.15-3.98L511.15-3.98Q512.71-3.98 513.75-4.39 514.78-4.81 515.33-5.53 515.88-6.25 515.88-7.2ZM594.4-13.11L585.22-13.11 585.22-18.19 594.4-18.19Q596.8-18.19 598.25-18.95 599.7-19.7 600.38-21.04 601.07-22.39 601.07-24.12L601.07-24.12Q601.07-25.78 600.38-27.22 599.7-28.66 598.25-29.57 596.8-30.47 594.4-30.47L594.4-30.47 587.13-30.47 587.13 0 580.83 0 580.83-35.55 594.4-35.55Q598.55-35.55 601.46-34.08 604.36-32.62 605.89-30.05 607.42-27.49 607.42-24.17L607.42-24.17Q607.42-20.73 605.89-18.25 604.36-15.77 601.46-14.44 598.55-13.11 594.4-13.11L594.4-13.11ZM631.26-12.94L631.26-13.45Q631.26-17.31 632.72-20.34 634.19-23.36 636.93-25.13 639.68-26.9 643.54-26.9L643.54-26.9Q647.44-26.9 650.2-25.13 652.96-23.36 654.41-20.34 655.87-17.31 655.87-13.45L655.87-13.45 655.87-12.94Q655.87-9.11 654.41-6.07 652.96-3.03 650.22-1.27 647.47 0.49 643.59 0.49L643.59 0.49Q639.71 0.49 636.95-1.27 634.19-3.03 632.72-6.07 631.26-9.11 631.26-12.94L631.26-12.94ZM637.31-13.45L637.31-12.94Q637.31-10.6 637.97-8.65 638.63-6.71 640.01-5.54 641.39-4.37 643.59-4.37L643.59-4.37Q645.76-4.37 647.14-5.54 648.52-6.71 649.17-8.65 649.81-10.6 649.81-12.94L649.81-12.94 649.81-13.45Q649.81-15.77 649.17-17.72 648.52-19.68 647.13-20.86 645.74-22.05 643.54-22.05L643.54-22.05Q641.37-22.05 639.99-20.86 638.61-19.68 637.96-17.72 637.31-15.77 637.31-13.45L637.31-13.45ZM688.4-6.03L694.48-26.42 698.34-26.42 697.31-19.97 691.18 0 687.77 0 688.4-6.03ZM684.98-26.42L689.72-5.96 690.04 0 686.2 0 679.08-26.42 684.98-26.42ZM703.93-6.2L708.49-26.42 714.38-26.42 707.27 0 703.44 0 703.93-6.2ZM699-26.42L705-6.25 705.71 0 702.27 0 696.07-20 695.07-26.42 699-26.42ZM750.5 0.49L750.5 0.49Q746.57 0.49 743.71-1.21 740.86-2.91 739.32-5.8 737.78-8.69 737.78-12.28L737.78-12.28 737.78-13.28Q737.78-17.41 739.34-20.47 740.91-23.54 743.63-25.22 746.35-26.9 749.79-26.9L749.79-26.9Q753.6-26.9 756.12-25.26 758.63-23.61 759.88-20.69 761.12-17.77 761.12-13.94L761.12-13.94 761.12-11.33 740.69-11.33 740.69-15.7 755.14-15.7 755.14-16.16Q755.09-17.7 754.55-19.04 754.02-20.39 752.86-21.22 751.7-22.05 749.77-22.05L749.77-22.05Q747.84-22.05 746.52-20.96 745.2-19.87 744.52-17.91 743.84-15.94 743.84-13.28L743.84-13.28 743.84-12.28Q743.84-10.03 744.67-8.25 745.5-6.47 747.08-5.43 748.67-4.39 750.87-4.39L750.87-4.39Q752.99-4.39 754.64-5.22 756.29-6.05 757.48-7.62L757.48-7.62 760.66-4.44Q759.41-2.56 756.91-1.04 754.41 0.49 750.5 0.49ZM792.17-21.24L792.17 0 786.11 0 786.11-26.42 791.87-26.42 792.17-21.24ZM800.17-26.59L800.12-20.85Q799.56-20.95 798.94-21 798.32-21.04 797.71-21.04L797.71-21.04Q795.71-21.04 794.38-20.32 793.04-19.6 792.36-18.27 791.68-16.94 791.56-15.14L791.56-15.14 790.16-15.11Q790.16-18.46 791.04-21.12 791.92-23.78 793.68-25.34 795.44-26.9 798.07-26.9L798.07-26.9Q798.59-26.9 799.22-26.81 799.86-26.71 800.17-26.59L800.17-26.59ZM831.29-35.55L830.66-10.57 825.51-10.57 824.87-35.55 831.29-35.55ZM824.7-2.91L824.7-2.91Q824.7-4.3 825.62-5.24 826.53-6.18 828.14-6.18L828.14-6.18Q829.75-6.18 830.67-5.24 831.58-4.3 831.58-2.91L831.58-2.91Q831.58-1.54 830.67-0.6 829.75 0.34 828.14 0.34L828.14 0.34Q826.53 0.34 825.62-0.6 824.7-1.54 824.7-2.91Z" opacity="1" transform="matrix(1,0,0,1,0,0)" fill="#000000" class="slogan-text-1" data-fill-palette-color="secondary" id="text-1"></path></svg></g></svg></g></svg></g></svg></g><g transform="matrix(1,0,0,1,55.509552578332574,0)"><svg viewBox="0 0 80.98089484333485 80.98089484333485" height="80.98089484333485" width="80.98089484333485"><g><svg></svg></g><g id="icon-0"><svg viewBox="0 0 80.98089484333485 80.98089484333485" height="80.98089484333485" width="80.98089484333485"><g><path d="M0 40.49c0-22.362 18.128-40.49 40.49-40.49 22.362 0 40.49 18.128 40.491 40.49 0 22.362-18.128 40.49-40.491 40.491-22.362 0-40.49-18.128-40.49-40.491zM40.49 79.36c21.467 0 38.87-17.403 38.87-38.87 0-21.467-17.403-38.87-38.87-38.869-21.467 0-38.87 17.403-38.869 38.869 0 21.467 17.403 38.87 38.869 38.87z" data-fill-palette-color="accent" fill="#000000" stroke="transparent"></path><ellipse rx="40.085542947450755" ry="40.085542947450755" cx="40.490447421667426" cy="40.490447421667426" fill="#000000" stroke="transparent" stroke-width="0" fill-opacity="1" data-fill-palette-color="accent"></ellipse></g><g transform="matrix(1,0,0,1,16.654326232685268,17.20057067659944)"><svg viewBox="0 0 47.67224237796432 46.57975349013597" height="46.57975349013597" width="47.67224237796432"><g><svg xmlns="http://www.w3.org/2000/svg" xmlns:xlink="http://www.w3.org/1999/xlink" version="1.1" x="0" y="0" viewBox="16 21.5 480 469" style="enable-background:new 0 0 512 512;" xml:space="preserve" height="46.57975349013597" width="47.67224237796432" class="icon-cg-0" data-fill-palette-color="quaternary" id="cg-0"><g fill="#a437db" data-fill-palette-color="quaternary"><g fill="#a437db" data-fill-palette-color="quaternary"><path d="M491 480.5H95v-174-210-8.785c0-1.517 0.688-2.952 1.872-3.9C105.215 77.123 110 67.167 110 56.5c0-19.299-15.701-35-35-35s-35 15.701-35 35c0 10.667 4.785 20.623 13.128 27.314 1.183 0.949 1.872 2.384 1.872 3.9V480.5H21c-2.762 0-5 2.238-5 5s2.238 5 5 5h470c2.762 0 5-2.238 5-5S493.762 480.5 491 480.5z" fill-rule="evenodd" clip-rule="evenodd" fill="#ffffff" data-fill-palette-color="quaternary"></path><rect x="105" y="221.5" width="200" height="20" fill-rule="evenodd" clip-rule="evenodd" fill="#ffffff" data-fill-palette-color="quaternary"></rect><rect x="105" y="251.5" width="200" height="20" fill-rule="evenodd" clip-rule="evenodd" fill="#ffffff" data-fill-palette-color="quaternary"></rect><polygon points="105,301.5 264.67,301.5 305,301.5 305,281.5 105,281.5   " fill-rule="evenodd" clip-rule="evenodd" fill="#ffffff" data-fill-palette-color="quaternary"></polygon><path d="M310 311.5h-37.389c10.366 18.443 29.805 30 51.389 30h111v-20h-95c-2.762 0-5-2.238-5-5s2.238-5 5-5h95v-20h-95c-2.762 0-5-2.238-5-5s2.238-5 5-5h95v-20h-95c-2.762 0-5-2.238-5-5s2.238-5 5-5h95v-20h-95c-2.762 0-5-2.239-5-5s2.238-5 5-5h95v-20h-95c-2.762 0-5-2.239-5-5s2.238-5 5-5h95v-20h-95c-2.762 0-5-2.239-5-5s2.238-5 5-5h95v-20H312.079c0.028 0.12 0.055 0.244 0.083 0.364 0.045 0.194 0.089 0.389 0.133 0.585 0.104 0.459 0.203 0.922 0.301 1.391 0.039 0.19 0.079 0.378 0.117 0.57 0.125 0.622 0.246 1.249 0.36 1.882 0.004 0.023 0.009 0.045 0.013 0.068 0.119 0.666 0.231 1.336 0.34 2.009 0.029 0.184 0.057 0.368 0.086 0.552 0.077 0.498 0.151 0.995 0.223 1.493 0.029 0.204 0.059 0.406 0.086 0.61 0.076 0.551 0.148 1.101 0.217 1.65 0.015 0.118 0.031 0.236 0.045 0.353 0.081 0.665 0.156 1.325 0.227 1.98 0.018 0.159 0.032 0.315 0.049 0.474 0.052 0.5 0.101 0.994 0.146 1.484 0.019 0.2 0.036 0.398 0.054 0.596 0.042 0.479 0.081 0.951 0.117 1.418 0.012 0.156 0.025 0.314 0.036 0.469 0.045 0.61 0.085 1.21 0.119 1.794 0.006 0.094 0.01 0.183 0.015 0.277 0.027 0.486 0.052 0.96 0.071 1.424 0.008 0.174 0.014 0.343 0.021 0.513 0.015 0.391 0.027 0.771 0.036 1.142 0.004 0.154 0.009 0.31 0.012 0.46 0.01 0.5 0.017 0.985 0.017 1.441v140C315 309.262 312.762 311.5 310 311.5z" fill-rule="evenodd" clip-rule="evenodd" fill="#ffffff" data-fill-palette-color="quaternary"></path><path d="M105 211.5h200v-20h-65.485c-2.761 0-5-2.239-5-5s2.239-5 5-5H305v-15c0-1.529-0.059-3.222-0.166-5h-65.319c-2.761 0-5-2.239-5-5s2.239-5 5-5h64.274c-0.753-5.123-1.819-9.976-3.094-13.124-0.967-2.387-2.082-4.678-3.318-6.876h-57.862c-2.761 0-5-2.239-5-5s2.239-5 5-5h50.799c-10.979-12.523-26.953-20-44.313-20H105V211.5zM181.426 119.814l3.499-10.867 3.519 10.867 11.426-0.021 11.426 0.021 3.498-10.867 3.519 10.867 11.426-0.021-9.252 6.706 3.54 10.847-9.232-6.728-9.211 6.728 3.54-10.847-9.252-6.706-9.253 6.706 3.54 10.847-9.232-6.728-9.211 6.728 3.54-10.847L170 119.794 181.426 119.814zM181.426 149.814l3.499-10.867 3.519 10.867 11.426-0.021 11.426 0.021 3.498-10.867 3.519 10.867 11.426-0.021-9.252 6.706 3.54 10.847-9.232-6.728-9.211 6.728 3.54-10.847-9.252-6.706-9.253 6.706 3.54 10.847-9.232-6.728-9.211 6.728 3.54-10.847L170 149.794 181.426 149.814zM181.426 179.814l3.499-10.867 3.519 10.867 11.426-0.021 11.426 0.021 3.498-10.867 3.519 10.867 11.426-0.021-9.252 6.706 3.54 10.847-9.232-6.728-9.211 6.728 3.54-10.847-9.252-6.706-9.253 6.706 3.54 10.847-9.232-6.728-9.211 6.728 3.54-10.847L170 179.794 181.426 179.814zM151.426 119.814l3.499-10.867 3.519 10.867 11.426-0.021-9.253 6.706 3.54 10.847-9.232-6.728-9.211 6.728 3.54-10.847L140 119.794 151.426 119.814zM151.426 149.814l3.499-10.867 3.519 10.867 11.426-0.021-9.253 6.706 3.54 10.847-9.232-6.728-9.211 6.728 3.54-10.847L140 149.794 151.426 149.814zM151.426 179.814l3.499-10.867 3.519 10.867 11.426-0.021-9.253 6.706 3.54 10.847-9.232-6.728-9.211 6.728 3.54-10.847L140 179.794 151.426 179.814zM121.426 119.814l3.499-10.867 3.519 10.867 11.426-0.021-9.253 6.706 3.54 10.847-9.232-6.728-9.211 6.728 3.54-10.847L110 119.794 121.426 119.814zM121.426 149.814l3.499-10.867 3.519 10.867 11.426-0.021-9.253 6.706 3.54 10.847-9.232-6.728-9.211 6.728 3.54-10.847L110 149.794 121.426 149.814zM121.426 179.814l3.499-10.867 3.519 10.867 11.426-0.021-9.253 6.706 3.54 10.847-9.232-6.728-9.211 6.728 3.54-10.847L110 179.794 121.426 179.814z" fill-rule="evenodd" clip-rule="evenodd" fill="#ffffff" data-fill-palette-color="quaternary"></path></g></g></svg></g></svg></g></svg></g></svg></g><g></g></svg></g></svg></g></svg></g><defs></defs></svg><rect width="320" height="360" fill="none" stroke="none" visibility="hidden"></rect></g></svg></g></svg>